<svg id="Layer_1" data-name="Layer 1" xmlns="http://www.w3.org/2000/svg" viewBox="0 0 584.92 694.05"><defs><style>.cls-1,.cls-2{fill:#fff;}.cls-1,.cls-3{stroke:#0cca4a;stroke-miterlimit:10;stroke-width:5px;}.cls-3{fill:none;}</style></defs><path class="cls-1" d="M880.41,753.17q0-9.67.2-19.21H786.16q.2,9.52.2,19.21c0,159.48-40.6,292.4-94.43,322.1v1H974.87v-1C921,1045.57,880.41,912.7,880.41,753.17Z" transform="translate(-541.18 -384.72)"/><rect class="cls-2" x="247.82" y="345.28" width="89" height="11"/><g id="Layer_1-2" data-name="Layer 1-2"><path class="cls-3" d="M1093.85,574.82a68.74,68.74,0,0,0-92.39-83.25,56.07,56.07,0,0,0-94.61-40.49,74.67,74.67,0,0,0-73.91-63.86v.33a74.66,74.66,0,0,0-73,63.84,56.08,56.08,0,0,0-94.61,40.5,68.75,68.75,0,0,0-92.4,83.24,79,79,0,0,0,92,128.12,77.92,77.92,0,0,0,94.3-2.62,83.88,83.88,0,0,0,74.43,45.16v-.23a83.82,83.82,0,0,0,73.94-45.15,78,78,0,0,0,94.26,2.58,79,79,0,0,0,92-128.2Z" transform="translate(-541.18 -384.72)"/></g><path class="cls-3" d="M883,822s64.48,52.54,104-10.46" transform="translate(-541.18 -384.72)"/><path class="cls-3" d="M891.29,894.91S982,919.5,1026,832.5" transform="translate(-541.18 -384.72)"/><path class="cls-3" d="M1099,779.5a24.5,24.5,0,0,0-24.5-24.5q-.81,0-1.59.06a35,35,0,0,0-63.08-5.79,36.34,36.34,0,0,0-4.33-.27,35.5,35.5,0,0,0,0,71,36.08,36.08,0,0,0,6.36-.58A38.49,38.49,0,0,0,1081.61,803,24.51,24.51,0,0,0,1099,779.5Z" transform="translate(-541.18 -384.72)"/><path class="cls-3" d="M603.5,579.5" transform="translate(-541.18 -384.72)"/><path class="cls-3" d="M796.5,745.5" transform="translate(-541.18 -384.72)"/></svg>